<svg width="8" height="11" viewBox="0 0 8 11" fill="none" xmlns="http://www.w3.org/2000/svg">
<path fill-rule="evenodd" clip-rule="evenodd" d="M0.146894 7.14599C0.193339 7.09943 0.248515 7.06249 0.30926 7.03728C0.370005 7.01207 0.435126 6.9991 0.500894 6.9991C0.566661 6.9991 0.631782 7.01207 0.692527 7.03728C0.753272 7.06249 0.808448 7.09943 0.854894 7.14599L3.50089 9.79299L6.14689 7.14599C6.24078 7.05211 6.36812 6.99936 6.50089 6.99936C6.63367 6.99936 6.76101 7.05211 6.85489 7.14599C6.94878 7.23988 7.00152 7.36722 7.00152 7.49999C7.00152 7.63277 6.94878 7.76011 6.85489 7.85399L3.85489 10.854C3.80845 10.9006 3.75327 10.9375 3.69253 10.9627C3.63178 10.9879 3.56666 11.0009 3.50089 11.0009C3.43513 11.0009 3.37001 10.9879 3.30926 10.9627C3.24851 10.9375 3.19334 10.9006 3.14689 10.854L0.146894 7.85399C0.10033 7.80755 0.0633873 7.75237 0.0381808 7.69163C0.0129744 7.63088 0 7.56576 0 7.49999C0 7.43423 0.0129744 7.36911 0.0381808 7.30836C0.0633873 7.24761 0.10033 7.19244 0.146894 7.14599Z" fill="#A6B0C3"/>
<path fill-rule="evenodd" clip-rule="evenodd" d="M3.50089 0C3.63349 0 3.76067 0.0526785 3.85444 0.146447C3.94821 0.240215 4.00089 0.367392 4.00089 0.5V9.5C4.00089 9.63261 3.94821 9.75979 3.85444 9.85355C3.76067 9.94732 3.63349 10 3.50089 10C3.36828 10 3.2411 9.94732 3.14733 9.85355C3.05356 9.75979 3.00089 9.63261 3.00089 9.5V0.5C3.00089 0.367392 3.05356 0.240215 3.14733 0.146447C3.2411 0.0526785 3.36828 0 3.50089 0Z" fill="#A6B0C3"/>
</svg>
