<svg width="23" height="23" viewBox="0 0 23 23" fill="none" xmlns="http://www.w3.org/2000/svg">
<path d="M4.80011 15.75L3.30011 19.2375L6.78761 17.7375C6.00011 17.175 5.32511 16.5 4.80011 15.75Z" fill="#FFCE31"/>
<path d="M17.7 6.74998L19.2 3.26248L15.75 4.76248C16.5 5.32498 17.175 5.99998 17.7 6.74998Z" fill="#FFCE31"/>
<path d="M3.525 9.86252L0 11.25L3.525 12.6375C3.4125 12.1875 3.375 11.7375 3.375 11.25C3.375 10.7625 3.4125 10.3125 3.525 9.86252Z" fill="#FFCE31"/>
<path d="M18.9749 12.6375L22.4999 11.25L18.9749 9.86252C19.0499 10.3125 19.1249 10.8 19.1249 11.25C19.1249 11.7375 19.0874 12.1875 18.9749 12.6375Z" fill="#FFCE31"/>
<path d="M6.74989 4.80002L3.26239 3.30002L4.76239 6.78752C5.32489 6.00002 5.99989 5.32502 6.74989 4.80002Z" fill="#FFCE31"/>
<path d="M15.75 17.7L19.2375 19.2L17.7375 15.7125C17.175 16.5 16.5 17.175 15.75 17.7Z" fill="#FFCE31"/>
<path d="M12.6376 3.525L11.2501 0L9.86261 3.525C10.3126 3.45 10.8001 3.375 11.2501 3.375C11.7001 3.375 12.1876 3.4125 12.6376 3.525Z" fill="#FFCE31"/>
<path d="M9.86261 18.975L11.2501 22.5L12.6376 18.975C12.1876 19.0875 11.7376 19.125 11.2501 19.125C10.7626 19.125 10.3126 19.0875 9.86261 18.975Z" fill="#FFCE31"/>
<path d="M11.25 18.375C15.185 18.375 18.375 15.185 18.375 11.25C18.375 7.31497 15.185 4.125 11.25 4.125C7.31497 4.125 4.125 7.31497 4.125 11.25C4.125 15.185 7.31497 18.375 11.25 18.375Z" fill="#FFCE31"/>
</svg>
